<?xml version="1.0" encoding="UTF-8"?>
<svg id="Layer_1" xmlns="http://www.w3.org/2000/svg" viewBox="0 0 484.47 166.23">
  <defs>
    <style>
      .cls-1 {
        fill: #fff;
      }

      .cls-2 {
        fill: #1ED760;
      }
    </style>
  </defs>
  <g>
    <path class="cls-2" d="M90.13,21.73h-35.08v87.49h-20.26V21.73H0V2.79h90.13v18.94Z"/>
    <path class="cls-2" d="M154.13,35.38v73.84h-19.08v-11.01c-5.14,8.07-13.21,12.62-23.93,12.62-20.7,0-35.08-15.71-35.08-38.46s14.53-38.61,35.52-38.61c10.57,0,18.5,4.55,23.49,12.62v-11.01h19.08ZM135.05,72.37c0-11.74-8.37-20.4-19.82-20.4s-19.08,8.66-19.08,20.4,7.63,20.4,19.08,20.4,19.82-8.51,19.82-20.4Z"/>
    <path class="cls-2" d="M309.14,20.26c-19.96,0-34.35,14.68-34.35,35.67s14.24,35.67,33.91,35.67c15.27,0,25.1-6.17,30.68-19.52l19.08,7.49c-8.51,19.08-25.84,31.27-49.91,31.27-30.97,0-54.31-22.9-54.31-54.9S277.58,1.17,309.14,1.17c23.19,0,39.49,11.74,48.59,30.09l-19.08,7.34c-6.17-12.48-15.71-18.35-29.51-18.35Z"/>
    <path class="cls-2" d="M371.97,77.07v-41.84h19.67v40.22c0,10.86,5.72,16.88,16.15,16.88s16.15-6.02,16.15-16.88v-40.22h19.67v41.84c0,21.29-13.21,33.47-35.82,33.47s-35.82-12.18-35.82-33.47Z"/>
    <path class="cls-2" d="M462.54,0h19.67v109.22h-19.67V0Z"/>
    <g>
      <polygon class="cls-2" points="189.33 77.12 164.44 109.22 187.78 109.22 200.38 91.86 189.33 77.12"/>
      <polygon class="cls-2" points="208.66 91.88 221.25 109.22 244.74 109.22 219.54 76.85 208.66 91.88"/>
    </g>
  </g>
  <polygon class="cls-1" points="242.43 33.72 219.09 33.72 203.83 55.89 198.44 46.84 185.02 59.93 204.5 86.14 215.88 70.41 215.86 70.27 242.43 33.72"/>
  <g>
    <path class="cls-2" d="M56.4,143.8h-8.83v22.02h-5.1v-22.02h-8.76v-4.77h22.69v4.77Z"/>
    <path class="cls-2" d="M101.65,161.24v4.58h-18.44v-26.79h18.26v4.55h-13.16v6.58h12.42v4.32h-12.42v6.76h13.34Z"/>
    <path class="cls-2" d="M140.49,143.43c-5.03,0-8.65,3.7-8.65,8.98s3.58,8.98,8.54,8.98c3.84,0,6.32-1.55,7.72-4.91l4.8,1.88c-2.14,4.8-6.5,7.87-12.56,7.87-7.8,0-13.67-5.76-13.67-13.82s5.88-13.78,13.82-13.78c5.84,0,9.94,2.96,12.23,7.58l-4.8,1.85c-1.55-3.14-3.95-4.62-7.43-4.62Z"/>
    <path class="cls-2" d="M198.7,139.03v26.79h-5.1v-11.2h-12.9v11.2h-5.1v-26.79h5.1v11.01h12.9v-11.01h5.1Z"/>
    <path class="cls-2" d="M222.68,139.03h4.4l14.3,18.29v-18.29h4.99v26.79h-4.36l-14.3-18.22v18.22h-5.03v-26.79Z"/>
    <path class="cls-2" d="M267.85,152.41c0-7.91,5.95-13.78,14.04-13.78s14.04,5.65,14.04,13.78-5.91,13.82-14.04,13.82-14.04-5.76-14.04-13.82ZM290.72,152.41c.04-5.4-3.58-8.98-8.83-8.98s-8.87,3.7-8.87,8.98,3.58,8.98,8.87,8.98,8.83-3.7,8.83-8.98Z"/>
    <path class="cls-2" d="M337.99,160.98v4.84h-17.48v-26.79h5.17v21.95h12.31Z"/>
    <path class="cls-2" d="M362.58,152.41c0-7.91,5.95-13.78,14.04-13.78s14.04,5.65,14.04,13.78-5.91,13.82-14.04,13.82-14.04-5.76-14.04-13.82ZM385.45,152.41c.04-5.4-3.58-8.98-8.83-8.98s-8.87,3.7-8.87,8.98,3.58,8.98,8.87,8.98,8.83-3.7,8.83-8.98Z"/>
    <path class="cls-2" d="M410.29,152.41c0-7.91,5.88-13.78,13.82-13.78,5.62,0,9.83,2.59,12.16,7.06l-4.91,1.85c-1.44-2.73-3.88-4.14-7.24-4.14-5.03,0-8.65,3.73-8.65,9.02s3.58,9.02,8.61,9.02c4.25,0,7.46-2.55,8.17-6.58h-8.61v-4.18h13.93s.11.78.11,1.77c0,8.09-5.51,13.78-13.64,13.78s-13.75-5.76-13.75-13.82Z"/>
    <path class="cls-2" d="M468.8,157.4l-10.57-18.37h5.99l6.95,12.68.22.7.26-.7,6.95-12.68h5.88l-10.57,18.37v8.43h-5.1v-8.43Z"/>
  </g>
</svg>